<?xml version="1.0" encoding="UTF-8"?>
<svg width="45px" height="70px" viewBox="0 0 45 70" version="1.1" xmlns="http://www.w3.org/2000/svg" xmlns:xlink="http://www.w3.org/1999/xlink">
    <!-- Generator: sketchtool 61.2 (101010) - https://sketch.com -->
    <title>BDA23492-BFFB-4B12-8558-D3C212C37EF8</title>
    <desc>Created with sketchtool.</desc>
    <defs>
        <polygon id="path-1" points="0.018 0.719230769 8.54475 0.719230769 8.54475 9.46315385 0.018 9.46315385"></polygon>
        <polygon id="path-3" points="0 0.0319117647 19.301934 0.0319117647 19.301934 24.9957923 0 24.9957923"></polygon>
        <polygon id="path-5" points="0.321428571 71 45.3214286 71 45.3214286 1 0.321428571 1"></polygon>
    </defs>
    <g id="NCERT-Quiz---Install-DIKSHA" stroke="none" stroke-width="1" fill="none" fill-rule="evenodd">
        <g id="Install-DIKSHA" transform="translate(-158.000000, -126.000000)">
            <g id="Group" transform="translate(157.000000, 126.000000)">
                <g id="Group-3" transform="translate(18.321429, 0.000000)">
                    <mask id="mask-2" fill="white">
                        <use xlink:href="#path-1"></use>
                    </mask>
                    <g id="Clip-2"></g>
                    <path d="M4.281,0.718538462 C6.636,0.718538462 8.54475,2.67623077 8.54475,5.09161538 C8.54475,7.50546154 6.636,9.46315385 4.281,9.46315385 C1.92675,9.46315385 0.018,7.50546154 0.018,5.09161538 C0.018,2.67623077 1.92675,0.718538462 4.281,0.718538462" id="Fill-1" fill="#E55A28" mask="url(#mask-2)"></path>
                </g>
                <path d="M35.3088693,4 C34.1990075,4 33.2985536,4.90522637 33.2985536,6.0209705 L33.2985536,21.4639519 L33.2185299,21.508311 C32.7997141,21.7443916 32.389873,21.9819759 31.9822755,22.2330936 C31.1655848,22.7315695 30.3638517,23.2608713 29.5793201,23.8412989 C28.7686124,24.4315004 28.0065173,25.0848574 27.2997657,25.7968585 C26.6102154,26.5193855 25.9842355,27.3005568 25.4285567,28.1313501 C25.2191488,28.4373527 25.0232029,28.7486182 24.8324921,29.063643 L24.8324921,16.2363448 C24.8324921,15.1206007 23.9327861,14.2153743 22.8229243,14.2153743 C21.7123147,14.2153743 20.8118608,15.1206007 20.8118608,16.2363448 L20.8118608,29.0726652 C20.6189064,28.754633 20.4214647,28.4403601 20.2113089,28.1313501 C19.6548823,27.3005568 19.0289023,26.5193855 18.3400999,25.7968585 C17.6333483,25.0863611 16.8720011,24.4330041 16.0620413,23.8443063 C15.2775097,23.2638787 14.4750287,22.7345769 13.6590859,22.236101 C13.2514884,21.9849833 12.8379078,21.7451435 12.4213357,21.5105665 C12.3944119,21.4955295 12.3682359,21.4812444 12.3420599,21.4662074 L12.3420599,6.02397789 C12.3420599,4.90823376 11.441606,4.0030074 10.3317442,4.0030074 C9.22113458,4.0030074 8.32142857,4.90823376 8.32142857,6.02397789 L8.32142857,22.6736772 C8.32142857,23.4796594 8.79932727,24.209705 9.5352464,24.5292408 C9.88450883,24.6848736 10.2965936,24.8796025 10.6750236,25.0675648 C11.0542014,25.2555271 11.4431018,25.455519 11.8207838,25.6622775 C12.5754001,26.0720353 13.3113192,26.5058522 14.0053568,26.9682395 C14.6739662,27.4035601 15.3074251,27.892262 15.8990023,28.4298342 C16.4718825,28.9801878 16.9998895,29.5779078 17.4740487,30.2154759 C18.4620052,31.5244453 19.2682256,32.9619808 19.8725169,34.4882346 C20.1641921,35.2333171 20.3967845,36.0009551 20.5673023,36.78363 C20.7094005,37.4858571 20.7916679,38.1993619 20.8126087,38.9158742 L20.8126087,38.9782777 C20.8126087,40.0947736 21.7130626,41 22.8236722,41 C23.933534,41 24.83324,40.0947736 24.83324,38.9782777 L24.83324,38.7797895 C24.8601639,38.1083882 24.9409355,37.441498 25.0733112,36.78363 C25.2460727,36.0009551 25.478665,35.2333171 25.771836,34.4882346 C26.3761274,32.9619808 27.1830956,31.5244453 28.1703042,30.2154759 C28.6444634,29.5779078 29.1702268,28.9809396 29.7438548,28.4313379 C30.3354321,27.8937657 30.968143,27.4050638 31.6375004,26.9697432 C32.3315379,26.5081078 33.067457,26.073539 33.8220733,25.6637812 C34.1975117,25.4570227 34.5819248,25.2615419 34.9670857,25.0690685 C35.3522466,24.8765951 35.7553568,24.6863773 36.106115,24.5307445 C36.8435299,24.2112086 37.3206807,23.481915 37.3214286,22.6751809 L37.3214286,6.0209705 C37.3214286,4.90522637 36.4209747,4 35.3111129,4 L35.3088693,4 Z" id="Fill-4" fill="#024F9D"></path>
                <g id="Group-8" transform="translate(1.321429, 21.000000)">
                    <mask id="mask-4" fill="white">
                        <use xlink:href="#path-3"></use>
                    </mask>
                    <g id="Clip-7"></g>
                    <path d="M11.6232593,13.5466176 C9.1277037,11.6480882 5.82992593,10.2833824 3.98251852,9.60617647 L3.98251852,2.00838235 C3.98251852,0.916470588 3.09066667,0.0319117647 1.99140741,0.0319117647 C0.892148148,0.0319117647 0.000296296296,0.916470588 0.000296296296,2.00838235 L0.000296296296,10.9583824 L0.000296296296,10.9811765 C-0.0152592593,11.8598529 0.556592593,12.6429412 1.40103704,12.9032353 C1.44918519,12.9186765 6.19733333,14.3936765 9.2202963,16.7017647 L9.27511111,16.7422059 C9.32325926,16.7752941 13.9958519,20.1333824 15.4706667,23.7760294 C15.8921481,24.7841176 17.0565926,25.2627941 18.0721481,24.8444118 C19.0736296,24.4333824 19.5588148,23.3032353 19.1654815,22.3010294 C17.3077037,17.7083824 12.121037,13.9039706 11.6232593,13.5466176" id="Fill-6" fill="#008840" mask="url(#mask-4)"></path>
                </g>
                <path d="M4.53888419,68.7378554 C5.05293745,68.7378554 5.49376585,68.6907924 5.82438715,68.3841697 C6.26521555,67.9712987 6.52187236,67.251805 6.52187236,66.0010696 C6.52187236,64.8095196 6.28888419,64.0893128 5.86062975,63.6536233 C5.53000845,63.3120599 5.07808538,63.2642838 4.54923922,63.2642838 L3.01077768,63.2642838 L3.01077768,68.7378554 L4.53888419,68.7378554 Z M1.32142857,70 L1.32142857,62 L4.31920964,62 C5.6409552,62 6.70604396,62.271682 7.3547126,62.9319904 C7.99080727,63.5808896 8.32142857,64.607006 8.32142857,65.9989304 C8.32142857,67.4635886 7.96639899,68.5232195 7.28148774,69.1599964 C6.6328191,69.7596934 5.78814455,69.9978608 4.49228656,69.9978608 L1.32142857,70 Z" id="Fill-9" fill="#024F9D"></path>
                <mask id="mask-6" fill="white">
                    <use xlink:href="#path-5"></use>
                </mask>
                <g id="Clip-12"></g>
                <polygon id="Fill-11" fill="#024F9D" mask="url(#mask-6)" points="9.32142857 70 11.3214286 70 11.3214286 62 9.32142857 62"></polygon>
                <polygon id="Fill-13" fill="#024F9D" mask="url(#mask-6)" points="17.4494217 65.7771637 20.3214286 70 18.3822038 70 16.007781 66.5558428 15.037417 66.5558428 15.037417 70 13.3214286 70 13.3214286 62 15.037417 62 15.037417 65.291559 15.9701991 65.291559 18.2461574 62 20.0485842 62"></polygon>
                <path d="M25.7078497,67.3390105 C25.7078497,66.3250447 25.1140638,66.2369071 24.0176311,66.1732947 C22.4986438,66.0836243 21.3214286,65.6528996 21.3214286,63.6364643 C21.3214286,61.7610491 22.6353526,61 24.5768946,61 C24.9766645,61 26.0503123,61.088904 26.6558359,61.316529 L26.6558359,62.6232649 C25.9840293,62.4600187 25.2984136,62.3741804 24.6114171,62.3688155 C23.4804619,62.3688155 22.9350074,62.7366942 22.9350074,63.4594226 C22.9350074,64.4741548 23.5412214,64.5124755 24.6266069,64.5622924 C26.10831,64.6259048 27.3214286,65.1079792 27.3214286,67.2094865 C27.3214286,69.0986971 25.9398405,70 23.905088,70 C23.4935805,70 22.3626253,69.9363876 21.4829936,69.6198586 L21.4829936,68.239547 C22.2942709,68.480201 23.4169407,68.556076 23.8678037,68.556076 C25.2604389,68.556076 25.7078497,68.0617389 25.7078497,67.3390105" id="Fill-14" fill="#024F9D" mask="url(#mask-6)"></path>
                <polygon id="Fill-15" fill="#024F9D" mask="url(#mask-6)" points="29.3214286 70 29.3214286 62 31.0555195 62 31.0555195 65.291559 34.5918831 65.291559 34.5918831 62 36.3214286 62 36.3214286 70 34.5850649 70 34.5850649 66.5558428 31.0555195 66.5558428 31.0555195 70"></polygon>
                <path d="M42.4484053,66.9213764 L41.866764,65.2462114 C41.6309635,64.5501872 41.4572946,63.971831 41.30758,63.4640756 L41.2701513,63.4640756 C41.1211853,63.971831 40.9475163,64.5501872 40.7109673,65.2462114 L40.1353146,66.9213764 L42.4484053,66.9213764 Z M42.8818291,68.1486896 L39.6741936,68.1486896 L39.0453923,70 L37.3214286,70 L40.3449151,62 L42.3024335,62 L45.3214286,70 L43.5256019,70 L42.8818291,68.1486896 Z" id="Fill-16" fill="#024F9D" mask="url(#mask-6)"></path>
                <path d="M43.3678411,22 C42.2898669,22 41.4152841,22.896272 41.4152841,24.0026427 L41.4152841,31.7010457 C39.6036482,32.386474 36.3689993,33.7699961 33.9217655,35.6936656 L33.9261238,35.6988808 C32.8343481,36.5117094 31.805769,37.4102165 30.8498296,38.3862068 C25.6510013,43.717647 22.6088477,50.9012337 22.4810017,51.2044612 C22.0546063,52.2206832 22.5122368,53.3993219 23.5023169,53.8359099 C24.4938498,54.273988 25.6422845,53.8046186 26.06868,52.7883967 C26.0977359,52.7191088 28.9553844,45.9959511 33.6108672,41.2203039 C34.4237063,40.3903396 35.2982891,39.625193 36.2266253,38.9338044 L36.2796524,38.8943178 C39.2440814,36.5549212 43.9002906,35.0603894 43.9475065,35.0454888 C44.7763262,34.7810029 45.3363789,33.9882902 45.3211245,33.0979784 L45.3211245,33.0741374 L45.3211245,24.0026427 C45.3211245,22.896272 44.4472681,22 43.3692939,22 L43.3678411,22 Z" id="Fill-17" fill="#008840" mask="url(#mask-6)"></path>
            </g>
        </g>
    </g>
</svg>