<svg xmlns="http://www.w3.org/2000/svg" width="128.8" height="19.82" viewBox="0 0 128.8 19.82"><path d="M126.65,16.59H106.23a1.69,1.69,0,0,1-1.69-1.69V2A1.69,1.69,0,0,1,106.23.28h20.42A1.69,1.69,0,0,1,128.33,2V14.9A1.69,1.69,0,0,1,126.65,16.59ZM106.23,1a.94.94,0,0,0-.94.94V14.9a.94.94,0,0,0,.94.94h20.42a.94.94,0,0,0,.93-.94V2a.94.94,0,0,0-.93-.94Z" fill="#fff"/><path d="M109.67,9v3.14h-.56V4.33h2a3.07,3.07,0,0,1,2.06.6,2.12,2.12,0,0,1,.7,1.71,2.26,2.26,0,0,1-.19.94,2.2,2.2,0,0,1-.55.74,2.8,2.8,0,0,1-.87.48,3.43,3.43,0,0,1-1.15.17Zm0-.45h1.45a2.91,2.91,0,0,0,.92-.14,2.12,2.12,0,0,0,.69-.4,1.69,1.69,0,0,0,.44-.59,1.86,1.86,0,0,0,.15-.75,1.76,1.76,0,0,0-.55-1.38,2.41,2.41,0,0,0-1.65-.49h-1.45Z" fill="#fff"/><path d="M118.43,12.11a.2.2,0,0,1-.21-.16l-.07-.69-.45.39a2.34,2.34,0,0,1-.47.3,2.13,2.13,0,0,1-.52.18,2.37,2.37,0,0,1-.61.07,1.71,1.71,0,0,1-.55-.09,1.42,1.42,0,0,1-.47-.25,1.22,1.22,0,0,1-.32-.44,1.38,1.38,0,0,1-.13-.64,1.15,1.15,0,0,1,.2-.64,1.64,1.64,0,0,1,.62-.52,4.42,4.42,0,0,1,1.08-.35,8.89,8.89,0,0,1,1.6-.15V8.54a1.8,1.8,0,0,0-.33-1.16,1.15,1.15,0,0,0-1-.41,1.73,1.73,0,0,0-.68.11,2.29,2.29,0,0,0-.47.24l-.31.24a.37.37,0,0,1-.2.11.18.18,0,0,1-.17-.1l-.09-.16a3.21,3.21,0,0,1,.9-.65,2.62,2.62,0,0,1,1.07-.22,2,2,0,0,1,.77.14,1.51,1.51,0,0,1,.55.4,2,2,0,0,1,.33.64,3,3,0,0,1,.11.82v3.57Zm-2.2-.29a2.56,2.56,0,0,0,.58-.07,2,2,0,0,0,.92-.49,4.61,4.61,0,0,0,.4-.37V9.47a8.34,8.34,0,0,0-1.35.12,3.73,3.73,0,0,0-.93.26,1.45,1.45,0,0,0-.54.39.87.87,0,0,0-.17.52,1.21,1.21,0,0,0,.09.48,1,1,0,0,0,.24.33,1,1,0,0,0,.35.19A1.35,1.35,0,0,0,116.23,11.82Z" fill="#fff"/><path d="M121.34,13.87a.57.57,0,0,1-.08.13.24.24,0,0,1-.15,0h-.38l1-2.13-2.32-5.27h.43a.17.17,0,0,1,.13,0,.28.28,0,0,1,.07.09L121.85,11a.7.7,0,0,1,.06.17c0,.06,0,.12,0,.18l.06-.18.06-.17,1.82-4.25a.25.25,0,0,1,.08-.1.2.2,0,0,1,.11,0h.4Z" fill="#fff"/><path d="M7.48,2.26a5.68,5.68,0,0,1,2.1,1.31,6.05,6.05,0,0,1,1.31,2.05,8.85,8.85,0,0,1,.42,2.71,9.19,9.19,0,0,1-.46,3A5.56,5.56,0,0,1,9.5,13.54a5.84,5.84,0,0,1-2.19,1.29,9.77,9.77,0,0,1-3,.43H1.45a1.05,1.05,0,0,1-.62-.21.92.92,0,0,1-.31-.74V2.77A.9.9,0,0,1,.83,2a1.09,1.09,0,0,1,.62-.2h3A9.17,9.17,0,0,1,7.48,2.26Zm-4.65,11H4.39A6.43,6.43,0,0,0,6.44,13a3.37,3.37,0,0,0,1.35-.88,4.15,4.15,0,0,0,.83-1.51,7.54,7.54,0,0,0,.28-2.2,6.7,6.7,0,0,0-.24-1.89,4.37,4.37,0,0,0-.79-1.48,3.82,3.82,0,0,0-1.35-.95,5.49,5.49,0,0,0-2.15-.35H2.83Z" fill="#fff" fill-rule="evenodd"/><path d="M19.36,5.4a3.79,3.79,0,0,1,1.35,1,3.72,3.72,0,0,1,.77,1.51,5.59,5.59,0,0,1,.25,1.72v.3a.94.94,0,0,1-.29.75,1,1,0,0,1-.63.22H15a4.6,4.6,0,0,0,.13,1,2.34,2.34,0,0,0,.47.93,2.3,2.3,0,0,0,.84.58,4,4,0,0,0,1.33.2,4.88,4.88,0,0,0,1.13-.09c.33-.07.64-.15.87-.22a4.57,4.57,0,0,0,.59-.23c.37-.16.56-.16.75-.05a.43.43,0,0,1,.2.22c0,.08,0,.15.05.26a1.78,1.78,0,0,1,0,.34c0,.09,0,.17,0,.24a1.81,1.81,0,0,0,0,.19.6.6,0,0,1-.08.2.75.75,0,0,1-.14.17,1.2,1.2,0,0,1-.4.23,5.28,5.28,0,0,1-.77.26,7.84,7.84,0,0,1-1.06.22,8.77,8.77,0,0,1-1.28.09,6.15,6.15,0,0,1-2.1-.31,4.26,4.26,0,0,1-1.54-1A4,4,0,0,1,13,12.53a7.09,7.09,0,0,1-.31-2.22A6.85,6.85,0,0,1,13,8.15,4.6,4.6,0,0,1,14,6.48a4,4,0,0,1,1.5-1.06,5,5,0,0,1,1.94-.37A4.84,4.84,0,0,1,19.36,5.4ZM19,7.51a2,2,0,0,0-1.65-.65,2,2,0,0,0-1,.22,2,2,0,0,0-.71.54,2.77,2.77,0,0,0-.45.81,3.23,3.23,0,0,0-.15.7H19.5A2.56,2.56,0,0,0,19,7.51Z" fill="#fff" fill-rule="evenodd"/><path d="M30.67,5.46a3.53,3.53,0,0,1,1.25,1.12,4.54,4.54,0,0,1,.69,1.66,8.92,8.92,0,0,1,.21,1.9,8.69,8.69,0,0,1-.27,2.19A4.53,4.53,0,0,1,31.74,14a3.79,3.79,0,0,1-1.36,1.08,4.39,4.39,0,0,1-1.83.37,3.49,3.49,0,0,1-.82-.09,3.81,3.81,0,0,1-.75-.28,4,4,0,0,1-.71-.47L26,14.4v3.92a.42.42,0,0,1-.08.28.54.54,0,0,1-.25.19,1.17,1.17,0,0,1-.33.07,3.24,3.24,0,0,1-.46,0,2.82,2.82,0,0,1-.44,0,1.36,1.36,0,0,1-.33-.07.47.47,0,0,1-.25-.21.39.39,0,0,1-.07-.26V5.76a.59.59,0,0,1,.05-.27.56.56,0,0,1,.25-.2,1.27,1.27,0,0,1,.31-.08h.77a1.57,1.57,0,0,1,.31.08.54.54,0,0,1,.25.19.47.47,0,0,1,.07.28v.59L26.19,6A5.34,5.34,0,0,1,27,5.49a3.54,3.54,0,0,1,.87-.33,3.61,3.61,0,0,1,.94-.11A3.86,3.86,0,0,1,30.67,5.46Zm-.27,6a5.44,5.44,0,0,0,.13-1.2A7.45,7.45,0,0,0,30.44,9,3.67,3.67,0,0,0,30.09,8a1.85,1.85,0,0,0-.61-.71,1.71,1.71,0,0,0-1-.26,2.22,2.22,0,0,0-.57.07,3.23,3.23,0,0,0-.6.28,4.49,4.49,0,0,0-.65.51,6,6,0,0,0-.69.72V12a6.43,6.43,0,0,0,1.23,1.16,2,2,0,0,0,1.17.39,1.74,1.74,0,0,0,1-.26,1.94,1.94,0,0,0,.65-.71A3.3,3.3,0,0,0,30.4,11.49Z" fill="#fff" fill-rule="evenodd"/><path d="M42.8,6.43a4.27,4.27,0,0,1,.9,1.62A7.18,7.18,0,0,1,44,10.14a6.64,6.64,0,0,1-.31,2.09,4.6,4.6,0,0,1-.94,1.68A4,4,0,0,1,41.16,15a5.49,5.49,0,0,1-2.17.4,5.71,5.71,0,0,1-2.09-.36,3.71,3.71,0,0,1-1.52-1,4.26,4.26,0,0,1-.91-1.63,7.19,7.19,0,0,1-.28-2.11,6.64,6.64,0,0,1,.3-2.09,4.8,4.8,0,0,1,.95-1.68A4.41,4.41,0,0,1,37,5.44a5.6,5.6,0,0,1,2.17-.39,6,6,0,0,1,2.1.35A3.77,3.77,0,0,1,42.8,6.43Zm-5,6.85a2.72,2.72,0,0,0,1.25.26,2.14,2.14,0,0,0,1.17-.28,2.07,2.07,0,0,0,.81-.65,3,3,0,0,0,.48-1,5.72,5.72,0,0,0,.15-1.36,6.25,6.25,0,0,0-.13-1.33,3.11,3.11,0,0,0-.42-1,2,2,0,0,0-.77-.69,2.72,2.72,0,0,0-1.25-.27,2.91,2.91,0,0,0-1.2.25,2.11,2.11,0,0,0-.8.65,3,3,0,0,0-.48,1,5.76,5.76,0,0,0-.16,1.36,5.68,5.68,0,0,0,.14,1.34,2.89,2.89,0,0,0,.42,1.05A2,2,0,0,0,37.84,13.28Z" fill="#fff" fill-rule="evenodd"/><path d="M55.37,1.48a1.48,1.48,0,0,0-1,.28,1.24,1.24,0,0,0-.3,1,1.2,1.2,0,0,0,.3,1,1.41,1.41,0,0,0,1,.28,1.48,1.48,0,0,0,1-.28,1.23,1.23,0,0,0,.31-1,1.22,1.22,0,0,0-.31-.95A1.39,1.39,0,0,0,55.37,1.48Z" fill="#fff" fill-rule="evenodd"/><path d="M56.16,5.29a1.14,1.14,0,0,0-.33-.08h-.9a1.23,1.23,0,0,0-.33.08.47.47,0,0,0-.25.2.5.5,0,0,0-.07.27v9a.51.51,0,0,0,.07.28.54.54,0,0,0,.25.19,1.45,1.45,0,0,0,.33.08h.9a1.14,1.14,0,0,0,.33-.08.6.6,0,0,0,.25-.19.41.41,0,0,0,.1-.28v-9a.48.48,0,0,0-.08-.28A.83.83,0,0,0,56.16,5.29Z" fill="#fff" fill-rule="evenodd"/><path d="M64.35,13.5a.35.35,0,0,0-.19-.22.6.6,0,0,0-.52,0l-.23.09-.31.1a3.48,3.48,0,0,1-.36,0,.82.82,0,0,1-.79-.35,2.42,2.42,0,0,1-.25-1.27V7.12h2.11a.56.56,0,0,0,.48-.3,1.36,1.36,0,0,0,.14-.65,1.84,1.84,0,0,0,0-.36,1.51,1.51,0,0,0-.1-.3.56.56,0,0,0-.21-.22.61.61,0,0,0-.27-.08H61.72V3.35a.48.48,0,0,0-.08-.28.6.6,0,0,0-.23-.19,1.26,1.26,0,0,0-.35-.09,3,3,0,0,0-.46,0,2.82,2.82,0,0,0-.44,0,.9.9,0,0,0-.35.09.75.75,0,0,0-.25.21.53.53,0,0,0-.07.26V5.23h-1a.43.43,0,0,0-.27.08.54.54,0,0,0-.23.24,2.17,2.17,0,0,0-.1.28,1.9,1.9,0,0,0,0,.37,1.22,1.22,0,0,0,.14.66.56.56,0,0,0,.48.3h1v5a6,6,0,0,0,.15,1.42,2.64,2.64,0,0,0,.54,1,2.29,2.29,0,0,0,1,.64,4.43,4.43,0,0,0,1.83.17l.46-.08a2.3,2.3,0,0,0,.42-.13,1.16,1.16,0,0,0,.33-.2.8.8,0,0,0,.19-.38,1.92,1.92,0,0,0,0-.52,1.78,1.78,0,0,0,0-.34.41.41,0,0,0,0-.28Z" fill="#fff" fill-rule="evenodd"/><path d="M73.64,13a.45.45,0,0,0-.18-.24.36.36,0,0,0-.25-.08h-4V2.43a.44.44,0,0,0-.1-.26A.57.57,0,0,0,68.77,2l-.44-.09a5.73,5.73,0,0,0-.67,0,6.39,6.39,0,0,0-.68,0,2.79,2.79,0,0,0-.44.09.74.74,0,0,0-.29.17.51.51,0,0,0-.09.26V14.18a.89.89,0,0,0,.27.72,1,1,0,0,0,.65.23h6.11a.43.43,0,0,0,.27-.1.45.45,0,0,0,.18-.24,2.23,2.23,0,0,0,.07-.37,4.1,4.1,0,0,0,0-.52,4.19,4.19,0,0,0,0-.53A1.94,1.94,0,0,0,73.64,13Z" fill="#fff" fill-rule="evenodd"/><path d="M76.37,1.29a1.94,1.94,0,0,0-1.29.34,1.54,1.54,0,0,0-.35,1.14,1.45,1.45,0,0,0,.35,1.1,2,2,0,0,0,1.27.32,2,2,0,0,0,1.27-.32A1.46,1.46,0,0,0,78,2.73a1.4,1.4,0,0,0-.35-1.1A1.86,1.86,0,0,0,76.37,1.29Z" fill="#fff" fill-rule="evenodd"/><path d="M77.42,5.34A2.73,2.73,0,0,0,77,5.25a5.35,5.35,0,0,0-.65,0,6,6,0,0,0-.66,0,2.49,2.49,0,0,0-.42.09.6.6,0,0,0-.27.17.44.44,0,0,0-.1.26v8.89a.42.42,0,0,0,.1.26.53.53,0,0,0,.27.17,2.09,2.09,0,0,0,.42.08H77a2,2,0,0,0,.42-.08.49.49,0,0,0,.27-.17.42.42,0,0,0,.1-.26V5.76a.45.45,0,0,0-.1-.27A.39.39,0,0,0,77.42,5.34Z" fill="#fff" fill-rule="evenodd"/><path d="M88.36,6.2a2.86,2.86,0,0,0-1.09-.86A4,4,0,0,0,85.63,5a3.74,3.74,0,0,0-1.71.41,5.57,5.57,0,0,0-1.36,1V5.72a.33.33,0,0,0-.08-.24.4.4,0,0,0-.23-.17,1.39,1.39,0,0,0-.37-.1H80.79a1.91,1.91,0,0,0-.39.08.51.51,0,0,0-.25.17.4.4,0,0,0-.07.24v8.91a.43.43,0,0,0,.09.26.56.56,0,0,0,.27.16,2.09,2.09,0,0,0,.42.08,6.13,6.13,0,0,0,.64,0,5.64,5.64,0,0,0,.63,0,2.07,2.07,0,0,0,.43-.08.56.56,0,0,0,.27-.16.51.51,0,0,0,.09-.26V8.78a4.57,4.57,0,0,1,1-.95,1.51,1.51,0,0,1,.92-.32,1.35,1.35,0,0,1,.62.13,1,1,0,0,1,.42.37,1.74,1.74,0,0,1,.27.6,4.12,4.12,0,0,1,.1,1v5.08a.48.48,0,0,0,.09.26.49.49,0,0,0,.27.17,1.61,1.61,0,0,0,.43.07,6,6,0,0,0,.65,0,5.83,5.83,0,0,0,.63,0,1.47,1.47,0,0,0,.43-.07.57.57,0,0,0,.27-.17.48.48,0,0,0,.09-.26V9.15a7.75,7.75,0,0,0-.17-1.7,3.59,3.59,0,0,0-.58-1.25Z" fill="#fff" fill-rule="evenodd"/><path d="M100.15,14.36A2.18,2.18,0,0,0,100,14L96.9,9.4l2.63-2.9a1.42,1.42,0,0,0,.25-.39.93.93,0,0,0,.1-.37.4.4,0,0,0-.1-.26.46.46,0,0,0-.29-.17,2.18,2.18,0,0,0-.44-.08,6.23,6.23,0,0,0-.65,0,6.34,6.34,0,0,0-.66,0,2.32,2.32,0,0,0-.44.08.71.71,0,0,0-.32.17,1.52,1.52,0,0,0-.22.22L94.28,8.93V1.52a.39.39,0,0,0-.09-.26.69.69,0,0,0-.27-.19A1.54,1.54,0,0,0,93.5,1a5.38,5.38,0,0,0-1.31,0,1.32,1.32,0,0,0-.42.09.51.51,0,0,0-.27.19.4.4,0,0,0-.1.26V14.66a.42.42,0,0,0,.1.26.49.49,0,0,0,.27.17,2,2,0,0,0,.42.08h1.27a2.09,2.09,0,0,0,.42-.08.53.53,0,0,0,.27-.17.42.42,0,0,0,.1-.26V10.39l2.8,4.31a1,1,0,0,0,.19.24.69.69,0,0,0,.31.15,2.27,2.27,0,0,0,.46.08h1.37a1.74,1.74,0,0,0,.42-.08.45.45,0,0,0,.27-.17.35.35,0,0,0,.08-.24.4.4,0,0,0,0-.32Z" fill="#fff" fill-rule="evenodd"/><path d="M47.62,11.41l1.16,1.12,1.27-1.29L47.53,8.82a1.84,1.84,0,0,1,0-2.62,1.88,1.88,0,0,1,1.34-.54,2,2,0,0,1,1.35.54,1.85,1.85,0,0,1,.56,1.33v.13l1.5,1.44.15-.49a3.56,3.56,0,0,0-.92-3.68,3.86,3.86,0,0,0-5.31,0,3.6,3.6,0,0,0,0,5.16Z" fill="#fff" fill-rule="evenodd"/><path d="M50.1,8.28,49,7.19,47.72,8.48l2.52,2.43a1.83,1.83,0,0,1,0,2.61,1.95,1.95,0,0,1-2.69,0A1.79,1.79,0,0,1,47,12.2v-.13l-1.5-1.44-.17.5a3.53,3.53,0,0,0,.92,3.68,3.78,3.78,0,0,0,2.65,1.07,3.82,3.82,0,0,0,2.66-1.07,3.55,3.55,0,0,0,0-5.13Z" fill="#fff" fill-rule="evenodd"/></svg>