<?xml version="1.0" encoding="iso-8859-1"?>
<!-- Uploaded to: SVG Repo, www.svgrepo.com, Generator: SVG Repo Mixer Tools -->
<svg fill="#000000" height="800px" width="800px" version="1.1" id="Layer_1" xmlns="http://www.w3.org/2000/svg" xmlns:xlink="http://www.w3.org/1999/xlink" 
	 viewBox="0 0 512.015 512.015" xml:space="preserve">
<g>
	<g>
		<g>
			<path d="M341.333,273.074c75.281,0,136.533-61.252,136.533-136.533S416.614,0.008,341.333,0.008
				C266.052,0.008,204.8,61.26,204.8,136.541S266.052,273.074,341.333,273.074z M341.333,17.074
				c65.877,0,119.467,53.589,119.467,119.467s-53.589,119.467-119.467,119.467s-119.467-53.589-119.467-119.467
				S275.456,17.074,341.333,17.074z"/>
			<path d="M507.426,358.408c-9.412-16.316-30.362-21.888-46.089-12.774l-98.219,47.804c-15.266,7.637-30.677,7.637-64.452,7.637
				c-33.015,0-83.422-8.337-83.925-8.414c-4.693-0.759-9.054,2.372-9.822,7.006c-0.777,4.651,2.364,9.054,7.006,9.822
				c2.125,0.358,52.301,8.653,86.741,8.653c35.43,0,53.214,0,72.004-9.395l98.662-48.051c3.942-2.278,8.542-2.884,12.954-1.707
				c4.395,1.186,8.081,4.011,10.351,7.953c2.287,3.951,2.893,8.55,1.715,12.954s-4.002,8.081-8.192,10.505l-115.379,71.808
				c-0.239,0.162-24.858,15.667-80.648,15.667c-48.367,0-123.11-41.182-124.186-41.771c-0.768-0.375-19.277-9.429-55.014-9.429
				c-4.71,0-8.533,3.823-8.533,8.533s3.823,8.533,8.533,8.533c31.036,0,47.027,7.467,47.061,7.467v-0.009
				c3.217,1.792,79.334,43.742,132.139,43.742c61.611,0,88.934-17.749,89.839-18.355l114.961-71.552
				c7.893-4.557,13.542-11.921,15.898-20.719C513.203,375.5,511.983,366.301,507.426,358.408z"/>
			<path d="M341.333,179.208c-9.412,0-17.067-7.654-17.067-17.067c0-4.71-3.814-8.533-8.533-8.533s-8.533,3.823-8.533,8.533
				c0,15.855,10.914,29.107,25.6,32.922v1.212c0,4.71,3.814,8.533,8.533,8.533c4.719,0,8.533-3.823,8.533-8.533v-1.212
				c14.686-3.814,25.6-17.067,25.6-32.922c0-18.825-15.309-34.133-34.133-34.133c-9.412,0-17.067-7.654-17.067-17.067
				c0-9.412,7.654-17.067,17.067-17.067c9.412,0,17.067,7.654,17.067,17.067c0,4.71,3.814,8.533,8.533,8.533
				s8.533-3.823,8.533-8.533c0-15.855-10.914-29.107-25.6-32.922v-1.212c0-4.71-3.814-8.533-8.533-8.533
				c-4.719,0-8.533,3.823-8.533,8.533v1.212c-14.686,3.814-25.6,17.067-25.6,32.922c0,18.825,15.309,34.133,34.133,34.133
				c9.412,0,17.067,7.654,17.067,17.067C358.4,171.553,350.746,179.208,341.333,179.208z"/>
			<path d="M59.733,273.074h-51.2c-4.71,0-8.533,3.823-8.533,8.533s3.823,8.533,8.533,8.533h51.2c4.702,0,8.533,3.831,8.533,8.533
				v187.733c0,4.702-3.831,8.533-8.533,8.533h-51.2c-4.71,0-8.533,3.823-8.533,8.533s3.823,8.533,8.533,8.533h51.2
				c14.114,0,25.6-11.486,25.6-25.6V298.674C85.333,284.56,73.847,273.074,59.733,273.074z"/>
			<path d="M110.933,324.274H179.2c9.958,0,26.88,12.698,41.813,23.893c18.722,14.046,36.412,27.307,52.053,27.307h51.2
				c12.962,0,19.396,5.879,19.567,6.033c1.664,1.664,3.849,2.5,6.033,2.5c2.185,0,4.369-0.836,6.033-2.5
				c3.336-3.337,3.336-8.73,0-12.066c-1.126-1.126-11.605-11.034-31.633-11.034h-51.2c-9.958,0-26.88-12.698-41.813-23.893
				c-18.722-14.046-36.412-27.307-52.053-27.307h-68.267c-4.71,0-8.533,3.823-8.533,8.533S106.223,324.274,110.933,324.274z"/>
			<path d="M42.667,456.541c0-7.057-5.743-12.8-12.8-12.8c-7.057,0-12.8,5.743-12.8,12.8c0,7.057,5.743,12.8,12.8,12.8
				C36.924,469.341,42.667,463.598,42.667,456.541z"/>
		</g>
	</g>
</g>
</svg>