<?xml version="1.0" encoding="UTF-8"?>
<svg xmlns="http://www.w3.org/2000/svg" xmlns:xlink="http://www.w3.org/1999/xlink" viewBox="0 0 48 48" width="48px" height="48px">
<g id="surface39751384">
<path style=" stroke:none;fill-rule:nonzero;fill:rgb(0%,0%,0%);fill-opacity:1;" d="M 10 12 L 13 37 L 4.980469 28.980469 C 3.792969 27.792969 3.472656 25.984375 4.183594 24.460938 Z M 10 12 "/>
<path style=" stroke:none;fill-rule:nonzero;fill:rgb(40.000001%,40.000001%,40.000001%);fill-opacity:1;" d="M 27.320312 6.320312 C 26.472656 5.472656 25.328125 5 24.136719 5 C 23.390625 5 22.65625 5.183594 22 5.539062 L 10 12 L 10 32.34375 C 10 33.402344 10.421875 34.421875 11.171875 35.171875 L 13 37 L 35 37 L 35 32 L 42 21 Z M 27.320312 6.320312 "/>
<path style=" stroke:none;fill-rule:nonzero;fill:rgb(0%,0%,0%);fill-opacity:1;" d="M 10 12 L 31.34375 12 C 32.402344 12 33.421875 12.421875 34.171875 13.171875 L 42 21 L 42 37 L 35 37 Z M 10 12 "/>
<path style=" stroke:none;fill-rule:nonzero;fill:rgb(80.000001%,80.000001%,80.000001%);fill-opacity:1;" d="M 35 37 L 13 37 L 19 43 L 35 43 Z M 35 37 "/>
</g>
</svg>
