<svg xmlns="http://www.w3.org/2000/svg" xmlns:xlink="http://www.w3.org/1999/xlink" viewBox="0 0 487.3 201.16"><defs><clipPath id="clip-path"><path d="M78.44,178h0a2.25,2.25,0,0,1,2.39,2.08V192.6a2.25,2.25,0,0,1-2.39,2.08h0A2.26,2.26,0,0,1,76,192.6V180.11A2.26,2.26,0,0,1,78.44,178Zm-10,2.08V192.6a2.25,2.25,0,0,0,2.4,2.08h0a2.25,2.25,0,0,0,2.39-2.08V180.11A2.25,2.25,0,0,0,70.87,178h0A2.25,2.25,0,0,0,68.47,180.11Zm-7.57,0V192.6a2.25,2.25,0,0,0,2.39,2.08h0a2.26,2.26,0,0,0,2.4-2.08V180.11a2.26,2.26,0,0,0-2.4-2.08h0A2.25,2.25,0,0,0,60.9,180.11Zm-7.57,0V192.6a2.25,2.25,0,0,0,2.39,2.08h0a2.25,2.25,0,0,0,2.39-2.08V180.11A2.25,2.25,0,0,0,55.72,178h0A2.25,2.25,0,0,0,53.33,180.11Zm-7.57,0V192.6a2.25,2.25,0,0,0,2.39,2.08h0a2.25,2.25,0,0,0,2.39-2.08V180.11A2.25,2.25,0,0,0,48.15,178h0A2.25,2.25,0,0,0,45.76,180.11Zm-7.57,0V192.6a2.25,2.25,0,0,0,2.39,2.08h0A2.25,2.25,0,0,0,43,192.6V180.11A2.25,2.25,0,0,0,40.58,178h0A2.25,2.25,0,0,0,38.19,180.11Zm-7.57,0V192.6A2.25,2.25,0,0,0,33,194.68h0a2.25,2.25,0,0,0,2.39-2.08V180.11A2.25,2.25,0,0,0,33,178h0A2.25,2.25,0,0,0,30.62,180.11Zm-7.57,0V192.6a2.25,2.25,0,0,0,2.39,2.08h0a2.25,2.25,0,0,0,2.39-2.08V180.11A2.25,2.25,0,0,0,25.44,178h0A2.25,2.25,0,0,0,23.05,180.11ZM76,159v12.49a2.26,2.26,0,0,0,2.4,2.08h0a2.25,2.25,0,0,0,2.39-2.08V159a2.26,2.26,0,0,0-2.39-2.09h0A2.27,2.27,0,0,0,76,159Zm-7.57,0v12.49a2.25,2.25,0,0,0,2.4,2.08h0a2.25,2.25,0,0,0,2.39-2.08V159a2.26,2.26,0,0,0-2.39-2.09h0A2.26,2.26,0,0,0,68.47,159Zm-7.57,0v12.49a2.25,2.25,0,0,0,2.39,2.08h0a2.26,2.26,0,0,0,2.4-2.08V159a2.27,2.27,0,0,0-2.4-2.09h0A2.26,2.26,0,0,0,60.9,159Zm-7.57,0v12.49a2.25,2.25,0,0,0,2.39,2.08h0a2.25,2.25,0,0,0,2.39-2.08V159a2.26,2.26,0,0,0-2.39-2.09h0A2.26,2.26,0,0,0,53.33,159Zm-7.57,0v12.49a2.25,2.25,0,0,0,2.39,2.08h0a2.25,2.25,0,0,0,2.39-2.08V159a2.26,2.26,0,0,0-2.39-2.09h0A2.26,2.26,0,0,0,45.76,159Zm-7.57,0v12.49a2.25,2.25,0,0,0,2.39,2.08h0A2.25,2.25,0,0,0,43,171.44V159a2.26,2.26,0,0,0-2.39-2.09h0A2.26,2.26,0,0,0,38.19,159Zm-7.57,0v12.49A2.25,2.25,0,0,0,33,173.52h0a2.25,2.25,0,0,0,2.39-2.08V159A2.26,2.26,0,0,0,33,156.86h0A2.26,2.26,0,0,0,30.62,159ZM76,137.78v12.49a2.26,2.26,0,0,0,2.4,2.08h0a2.25,2.25,0,0,0,2.39-2.08V137.78a2.25,2.25,0,0,0-2.39-2.08h0A2.26,2.26,0,0,0,76,137.78Zm-7.57,0v12.49a2.25,2.25,0,0,0,2.4,2.08h0a2.25,2.25,0,0,0,2.39-2.08V137.78a2.25,2.25,0,0,0-2.39-2.08h0A2.25,2.25,0,0,0,68.47,137.78Zm-7.57,0v12.49a2.25,2.25,0,0,0,2.39,2.08h0a2.26,2.26,0,0,0,2.4-2.08V137.78a2.26,2.26,0,0,0-2.4-2.08h0A2.25,2.25,0,0,0,60.9,137.78Zm-7.57,0v12.49a2.25,2.25,0,0,0,2.39,2.08h0a2.25,2.25,0,0,0,2.39-2.08V137.78a2.25,2.25,0,0,0-2.39-2.08h0A2.25,2.25,0,0,0,53.33,137.78Zm-7.57,0v12.49a2.25,2.25,0,0,0,2.39,2.08h0a2.25,2.25,0,0,0,2.39-2.08V137.78a2.25,2.25,0,0,0-2.39-2.08h0A2.25,2.25,0,0,0,45.76,137.78Zm-7.57,0v12.49a2.25,2.25,0,0,0,2.39,2.08h0A2.25,2.25,0,0,0,43,150.27V137.78a2.25,2.25,0,0,0-2.39-2.08h0A2.25,2.25,0,0,0,38.19,137.78Zm-7.57,0v12.49A2.25,2.25,0,0,0,33,152.35h0a2.25,2.25,0,0,0,2.39-2.08V137.78A2.25,2.25,0,0,0,33,135.7h0A2.25,2.25,0,0,0,30.62,137.78Zm-7.57,0v12.49a2.25,2.25,0,0,0,2.39,2.08h0a2.25,2.25,0,0,0,2.39-2.08V137.78a2.25,2.25,0,0,0-2.39-2.08h0A2.25,2.25,0,0,0,23.05,137.78Zm-7.57,0v12.49a2.25,2.25,0,0,0,2.39,2.08h0a2.25,2.25,0,0,0,2.39-2.08V137.78a2.25,2.25,0,0,0-2.39-2.08h0A2.25,2.25,0,0,0,15.48,137.78ZM76,116.61v12.5a2.26,2.26,0,0,0,2.4,2.08h0a2.25,2.25,0,0,0,2.39-2.08v-12.5a2.25,2.25,0,0,0-2.39-2.08h0A2.26,2.26,0,0,0,76,116.61Zm-7.57,0v12.5a2.25,2.25,0,0,0,2.4,2.08h0a2.25,2.25,0,0,0,2.39-2.08v-12.5a2.25,2.25,0,0,0-2.39-2.08h0A2.25,2.25,0,0,0,68.47,116.61Zm-7.57,0v12.5a2.25,2.25,0,0,0,2.39,2.08h0a2.26,2.26,0,0,0,2.4-2.08v-12.5a2.26,2.26,0,0,0-2.4-2.08h0A2.25,2.25,0,0,0,60.9,116.61Zm-7.57,0v12.5a2.25,2.25,0,0,0,2.39,2.08h0a2.25,2.25,0,0,0,2.39-2.08v-12.5a2.25,2.25,0,0,0-2.39-2.08h0A2.25,2.25,0,0,0,53.33,116.61Zm-7.57,0v12.5a2.25,2.25,0,0,0,2.39,2.08h0a2.25,2.25,0,0,0,2.39-2.08v-12.5a2.25,2.25,0,0,0-2.39-2.08h0A2.25,2.25,0,0,0,45.76,116.61Zm-7.57,0v12.5a2.25,2.25,0,0,0,2.39,2.08h0A2.25,2.25,0,0,0,43,129.11v-12.5a2.25,2.25,0,0,0-2.39-2.08h0A2.25,2.25,0,0,0,38.19,116.61Zm-7.57,0v12.5A2.25,2.25,0,0,0,33,131.19h0a2.25,2.25,0,0,0,2.39-2.08v-12.5A2.25,2.25,0,0,0,33,114.53h0A2.25,2.25,0,0,0,30.62,116.61ZM76,95.45v12.49a2.26,2.26,0,0,0,2.4,2.08h0a2.25,2.25,0,0,0,2.39-2.08V95.45a2.25,2.25,0,0,0-2.39-2.08h0A2.26,2.26,0,0,0,76,95.45Zm-7.57,0v12.49a2.25,2.25,0,0,0,2.4,2.08h0a2.25,2.25,0,0,0,2.39-2.08V95.45a2.25,2.25,0,0,0-2.39-2.08h0A2.25,2.25,0,0,0,68.47,95.45Zm-7.57,0v12.49A2.25,2.25,0,0,0,63.29,110h0a2.26,2.26,0,0,0,2.4-2.08V95.45a2.26,2.26,0,0,0-2.4-2.08h0A2.25,2.25,0,0,0,60.9,95.45Zm-7.57,0v12.49A2.25,2.25,0,0,0,55.72,110h0a2.25,2.25,0,0,0,2.39-2.08V95.45a2.25,2.25,0,0,0-2.39-2.08h0A2.25,2.25,0,0,0,53.33,95.45Zm-7.57,0v12.49A2.25,2.25,0,0,0,48.15,110h0a2.25,2.25,0,0,0,2.39-2.08V95.45a2.25,2.25,0,0,0-2.39-2.08h0A2.25,2.25,0,0,0,45.76,95.45Zm-7.57,0v12.49A2.25,2.25,0,0,0,40.58,110h0A2.25,2.25,0,0,0,43,107.94V95.45a2.25,2.25,0,0,0-2.39-2.08h0A2.25,2.25,0,0,0,38.19,95.45Zm-7.57,0v12.49A2.25,2.25,0,0,0,33,110h0a2.25,2.25,0,0,0,2.39-2.08V95.45A2.25,2.25,0,0,0,33,93.37h0A2.25,2.25,0,0,0,30.62,95.45ZM76,74.28V86.77a2.27,2.27,0,0,0,2.4,2.09h0a2.26,2.26,0,0,0,2.39-2.09V74.28a2.25,2.25,0,0,0-2.39-2.08h0A2.26,2.26,0,0,0,76,74.28Zm-7.57,0V86.77a2.26,2.26,0,0,0,2.4,2.09h0a2.26,2.26,0,0,0,2.39-2.09V74.28a2.25,2.25,0,0,0-2.39-2.08h0A2.25,2.25,0,0,0,68.47,74.28Zm-7.57,0V86.77a2.26,2.26,0,0,0,2.39,2.09h0a2.27,2.27,0,0,0,2.4-2.09V74.28a2.26,2.26,0,0,0-2.4-2.08h0A2.25,2.25,0,0,0,60.9,74.28Zm-7.57,0V86.77a2.26,2.26,0,0,0,2.39,2.09h0a2.26,2.26,0,0,0,2.39-2.09V74.28a2.25,2.25,0,0,0-2.39-2.08h0A2.25,2.25,0,0,0,53.33,74.28Zm-7.57,0V86.77a2.26,2.26,0,0,0,2.39,2.09h0a2.26,2.26,0,0,0,2.39-2.09V74.28a2.25,2.25,0,0,0-2.39-2.08h0A2.25,2.25,0,0,0,45.76,74.28Zm-7.57,0V86.77a2.26,2.26,0,0,0,2.39,2.09h0A2.26,2.26,0,0,0,43,86.77V74.28a2.25,2.25,0,0,0-2.39-2.08h0A2.25,2.25,0,0,0,38.19,74.28Zm-7.57,0V86.77A2.26,2.26,0,0,0,33,88.86h0a2.26,2.26,0,0,0,2.39-2.09V74.28A2.25,2.25,0,0,0,33,72.2h0A2.25,2.25,0,0,0,30.62,74.28Zm-7.57,0V86.77a2.26,2.26,0,0,0,2.39,2.09h0a2.26,2.26,0,0,0,2.39-2.09V74.28a2.25,2.25,0,0,0-2.39-2.08h0A2.25,2.25,0,0,0,23.05,74.28Zm-7.57,0V86.77a2.26,2.26,0,0,0,2.39,2.09h0a2.26,2.26,0,0,0,2.39-2.09V74.28a2.25,2.25,0,0,0-2.39-2.08h0A2.25,2.25,0,0,0,15.48,74.28ZM76,53.12V65.61a2.26,2.26,0,0,0,2.4,2.08h0a2.25,2.25,0,0,0,2.39-2.08V53.12A2.25,2.25,0,0,0,78.44,51h0A2.26,2.26,0,0,0,76,53.12Zm-7.57,0V65.61a2.25,2.25,0,0,0,2.4,2.08h0a2.25,2.25,0,0,0,2.39-2.08V53.12A2.25,2.25,0,0,0,70.87,51h0A2.25,2.25,0,0,0,68.47,53.12Zm-7.57,0V65.61a2.25,2.25,0,0,0,2.39,2.08h0a2.26,2.26,0,0,0,2.4-2.08V53.12A2.26,2.26,0,0,0,63.29,51h0A2.25,2.25,0,0,0,60.9,53.12Zm-7.57,0V65.61a2.25,2.25,0,0,0,2.39,2.08h0a2.25,2.25,0,0,0,2.39-2.08V53.12A2.25,2.25,0,0,0,55.72,51h0A2.25,2.25,0,0,0,53.33,53.12Zm-7.57,0V65.61a2.25,2.25,0,0,0,2.39,2.08h0a2.25,2.25,0,0,0,2.39-2.08V53.12A2.25,2.25,0,0,0,48.15,51h0A2.25,2.25,0,0,0,45.76,53.12Zm-7.57,0V65.61a2.25,2.25,0,0,0,2.39,2.08h0A2.25,2.25,0,0,0,43,65.61V53.12A2.25,2.25,0,0,0,40.58,51h0A2.25,2.25,0,0,0,38.19,53.12Zm-7.57,0V65.61A2.25,2.25,0,0,0,33,67.69h0a2.25,2.25,0,0,0,2.39-2.08V53.12A2.25,2.25,0,0,0,33,51h0A2.25,2.25,0,0,0,30.62,53.12ZM76,32V44.44a2.27,2.27,0,0,0,2.4,2.09h0a2.26,2.26,0,0,0,2.39-2.09V32a2.25,2.25,0,0,0-2.39-2.08h0A2.26,2.26,0,0,0,76,32Zm-7.57,0V44.44a2.26,2.26,0,0,0,2.4,2.09h0a2.26,2.26,0,0,0,2.39-2.09V32a2.25,2.25,0,0,0-2.4-2.08h0A2.25,2.25,0,0,0,68.47,32ZM60.9,32V44.44a2.26,2.26,0,0,0,2.39,2.09h0a2.27,2.27,0,0,0,2.4-2.09V32a2.26,2.26,0,0,0-2.4-2.08h0A2.25,2.25,0,0,0,60.9,32Zm-7.57,0V44.44a2.26,2.26,0,0,0,2.39,2.09h0a2.26,2.26,0,0,0,2.39-2.09V32a2.25,2.25,0,0,0-2.39-2.08h0A2.25,2.25,0,0,0,53.33,32Zm-7.57,0V44.44a2.26,2.26,0,0,0,2.39,2.09h0a2.26,2.26,0,0,0,2.39-2.09V32a2.25,2.25,0,0,0-2.39-2.08h0A2.25,2.25,0,0,0,45.76,32Zm-7.57,0V44.44a2.26,2.26,0,0,0,2.39,2.09h0A2.26,2.26,0,0,0,43,44.44V32a2.25,2.25,0,0,0-2.39-2.08h0A2.25,2.25,0,0,0,38.19,32Zm-7.57,0V44.44A2.26,2.26,0,0,0,33,46.53h0a2.26,2.26,0,0,0,2.39-2.09V32A2.25,2.25,0,0,0,33,29.87h0A2.25,2.25,0,0,0,30.62,32Zm-7.57,0V44.44a2.26,2.26,0,0,0,2.39,2.09h0a2.26,2.26,0,0,0,2.39-2.09V32a2.25,2.25,0,0,0-2.39-2.08h0A2.25,2.25,0,0,0,23.05,32Z" style="fill:none"/></clipPath><linearGradient id="Sfumatura_senza_nome_6" x1="7004.88" y1="1200.93" x2="7176.82" y2="1200.93" gradientTransform="translate(-7039.98 -1087.84)" gradientUnits="userSpaceOnUse"><stop offset="0" stop-color="#f7a715"/><stop offset="1" stop-color="#e33219"/></linearGradient><clipPath id="clip-path-2"><path d="M113.56,194.77H95V110.94h18.53v5.26a24.17,24.17,0,0,1,6.73-4.84,19.84,19.84,0,0,1,8.83-1.87,34.52,34.52,0,0,1,12.67,2.29,33.33,33.33,0,0,1,10.34,6.34,29.31,29.31,0,0,1,7,9.37,26.35,26.35,0,0,1,2.5,11.4,26.7,26.7,0,0,1-2.5,11.45,29.07,29.07,0,0,1-7,9.42,33.14,33.14,0,0,1-10.34,6.34,34.52,34.52,0,0,1-12.67,2.29,19.58,19.58,0,0,1-8.83-1.9,25.1,25.1,0,0,1-6.73-4.8Zm15.32-69.19A13.47,13.47,0,0,0,122,127.4a14,14,0,0,0-5,4.83,12.93,12.93,0,0,0,0,13.36,13.78,13.78,0,0,0,11.86,6.6,13.92,13.92,0,0,0,7-1.79,13.66,13.66,0,0,0,5-4.81,13,13,0,0,0,0-13.36,14,14,0,0,0-12-6.65Zm79.93-67.33V30.09h19.25V58a13.28,13.28,0,0,0,1.73,6.71,12.86,12.86,0,0,0,4.88,4.8,14.62,14.62,0,0,0,7.38,1.79,12.8,12.8,0,0,0,7-1.79,11.46,11.46,0,0,0,4.27-4.8A15.38,15.38,0,0,0,254.76,58V30.09H274V86H254.76V80.83a25.31,25.31,0,0,1-7,4.81,21.41,21.41,0,0,1-9.21,1.9A30.58,30.58,0,0,1,222.7,83.6,27.1,27.1,0,0,1,212.47,73,31,31,0,0,1,208.81,58.25ZM354.56,23.16a10.33,10.33,0,0,1-6.94-2.41,7.53,7.53,0,0,1-2.82-6,7.57,7.57,0,0,1,2.82-5.95,10.29,10.29,0,0,1,6.94-2.43,10,10,0,0,1,6.83,2.43,7.61,7.61,0,0,1,2.79,5.95,7.57,7.57,0,0,1-2.79,6A10.07,10.07,0,0,1,354.56,23.16Zm-9.7,6.93h19.26V86H344.86Zm-12.44,80.78H353L317.79,194.7H297.38l11.56-27.94-23.11-55.89h21.05l11.68,33Zm136.32,17.22a15.07,15.07,0,0,0-3.91-1.88,16,16,0,0,0-4.82-.69,12.67,12.67,0,0,0-7,1.78,11.41,11.41,0,0,0-4.21,4.81,15.66,15.66,0,0,0-1.41,6.71v27.94H428.05V110.87H447.3V116a24.35,24.35,0,0,1,7-4.78,21.89,21.89,0,0,1,9.18-1.82c1.5,0,2.94,0,4.33.08a19.39,19.39,0,0,1,4,.59ZM258.23,110.87h19.26v55.89H258.17l-.9-5a17.79,17.79,0,0,1-6,4.7,18.89,18.89,0,0,1-8.44,1.78,38.14,38.14,0,0,1-13.45-2.34,35.48,35.48,0,0,1-11-6.51,30.56,30.56,0,0,1-7.42-9.62A26.36,26.36,0,0,1,208.3,138a25.39,25.39,0,0,1,2.51-11.17,28.27,28.27,0,0,1,7-9.14,34.09,34.09,0,0,1,10.46-6.18A36.11,36.11,0,0,1,241,109.31a24.83,24.83,0,0,1,10.05,2,33.26,33.26,0,0,1,8,4.95Zm-14.82,41.25a14,14,0,0,0,7.38-1.93,12.57,12.57,0,0,0,4.84-5.11,11.35,11.35,0,0,0,1.06-7.05,13.37,13.37,0,0,0-2.89-6.31,16.91,16.91,0,0,0-5.68-4.53,15.91,15.91,0,0,0-7.15-1.67,13.91,13.91,0,0,0-7.29,1.9,12.29,12.29,0,0,0-4.78,5.08,12,12,0,0,0-1.09,7.1,14.11,14.11,0,0,0,2.92,6.26,16.87,16.87,0,0,0,5.62,4.55A15.26,15.26,0,0,0,243.41,152.12ZM308.54,87a41.48,41.48,0,0,1-9.37-1.84,29.45,29.45,0,0,1-8-4A18.8,18.8,0,0,1,285.57,75l16.17-6c.43.41,1,.93,1.79,1.54a11.78,11.78,0,0,0,2.92,1.65,11.31,11.31,0,0,0,4.27.73,17.2,17.2,0,0,0,3.24-.31,5.87,5.87,0,0,0,2.57-1.09,2.84,2.84,0,0,0-.32-4.56A9.48,9.48,0,0,0,313,65.77c-1.24-.24-2.39-.44-3.46-.59A39.13,39.13,0,0,1,298.63,62a24.65,24.65,0,0,1-8.57-6.21,13.19,13.19,0,0,1-3.34-9,15.36,15.36,0,0,1,3.37-9.94A21.7,21.7,0,0,1,299,30.45a31,31,0,0,1,11.87-2.26,35.42,35.42,0,0,1,13.89,2.68,26.62,26.62,0,0,1,10.5,7.71l-15.15,7.83a14.79,14.79,0,0,0-1.89-1.71,12.34,12.34,0,0,0-2.57-1.51,10,10,0,0,0-3.11-.81,16.72,16.72,0,0,0-4,.14,5.54,5.54,0,0,0-2.79,1.23,3.38,3.38,0,0,0-1,2.66,2.45,2.45,0,0,0,1.8,2.34,17.28,17.28,0,0,0,4,1.06,33,33,0,0,1,3.66.73,55.66,55.66,0,0,1,10.4,4.08,25.08,25.08,0,0,1,7.86,6.09,11.9,11.9,0,0,1,2.79,8.39,14.22,14.22,0,0,1-3.85,9.83,24.12,24.12,0,0,1-9.95,6.43A30.55,30.55,0,0,1,308.54,87Zm77.79,81.23a33.26,33.26,0,0,1-16.14-4,31.61,31.61,0,0,1-11.61-10.68,27.44,27.44,0,0,1-1.83-26.24,30,30,0,0,1,6.9-9.39,32.46,32.46,0,0,1,10.23-6.34,33.78,33.78,0,0,1,12.45-2.29,33.43,33.43,0,0,1,14.09,2.93,31.93,31.93,0,0,1,10.78,7.94,29.7,29.7,0,0,1,6.26,11.26,25.39,25.39,0,0,1,.39,12.91H375a13.07,13.07,0,0,0,2.4,3.55,11.06,11.06,0,0,0,3.73,2.54,13.59,13.59,0,0,0,5.16,1,11.77,11.77,0,0,0,5.24-1.06,13.9,13.9,0,0,0,4.2-3l19.64,4a31.18,31.18,0,0,1-11.68,12.15A32.82,32.82,0,0,1,386.33,168.21Zm-12-36.16H398.4a12.08,12.08,0,0,0-2.7-4.24,13.18,13.18,0,0,0-4.2-2.91,13,13,0,0,0-10.27,0,13.08,13.08,0,0,0-6.9,7.15Zm43.43-64.34,17.33,8.16A32.67,32.67,0,0,1,424,84.31a34.83,34.83,0,0,1-30.71-.78,31.65,31.65,0,0,1-11.62-10.65,27.5,27.5,0,0,1-1.83-26.27,30.2,30.2,0,0,1,6.9-9.39A32.4,32.4,0,0,1,397,30.88a33.7,33.7,0,0,1,12.45-2.29A33.31,33.31,0,0,1,424,31.78a32,32,0,0,1,11.1,8.55l-17.33,8.16a12.67,12.67,0,0,0-8.34-3.13,12.21,12.21,0,0,0-6.55,1.78,13.58,13.58,0,0,0-4.59,4.7,12.22,12.22,0,0,0-1.7,6.26,11.92,11.92,0,0,0,1.7,6.17,13.58,13.58,0,0,0,4.59,4.67,12.22,12.22,0,0,0,6.55,1.79,12.57,12.57,0,0,0,4.46-.81A14.15,14.15,0,0,0,417.76,67.71ZM196,56.24A23,23,0,0,0,191.9,43,29.16,29.16,0,0,0,181,33.47a32.73,32.73,0,0,0-15.28-3.55,34.42,34.42,0,0,0-11.07,1.79A30.06,30.06,0,0,0,145.08,37a29.28,29.28,0,0,0-9.5-5.25,34.69,34.69,0,0,0-11.1-1.79A14.82,14.82,0,0,0,118.83,31a30,30,0,0,0-5.39,2.85v-3.8H94.18V86h19.26V56.24a8.28,8.28,0,0,1,1.48-4.83,10.47,10.47,0,0,1,4-3.44,12.06,12.06,0,0,1,5.55-1.29A11.88,11.88,0,0,1,130,48a10.6,10.6,0,0,1,4,3.44,8.35,8.35,0,0,1,1.47,4.83V86h19.26V56.24a8.35,8.35,0,0,1,1.47-4.83,10.6,10.6,0,0,1,4-3.44,12.58,12.58,0,0,1,11.1,0,10.53,10.53,0,0,1,4,3.44,8.28,8.28,0,0,1,1.48,4.83V166.76H196Z" style="fill:none"/></clipPath><linearGradient id="Sfumatura_senza_nome_6-2" x1="7000.44" y1="1451.64" x2="7203.68" y2="1451.64" gradientTransform="translate(-1150.06 7203.94) rotate(-90)" xlink:href="#Sfumatura_senza_nome_6"/></defs><g id="Livello_8" data-name="Livello 8"><g style="clip-path:url(#clip-path)"><rect x="-35.1" y="64.41" width="171.94" height="97.37" transform="translate(-62.22 163.97) rotate(-90)" style="fill:url(#Sfumatura_senza_nome_6)"/></g><g style="clip-path:url(#clip-path-2)"><rect x="88.53" y="0.26" width="426.12" height="203.24" style="fill:url(#Sfumatura_senza_nome_6-2)"/></g></g></svg>