<?xml version="1.0" encoding="utf-8"?>
<!-- Generator: Adobe Illustrator 22.1.0, SVG Export Plug-In . SVG Version: 6.00 Build 0)  -->
<svg version="1.1" id="Ebene_1" xmlns="http://www.w3.org/2000/svg" xmlns:xlink="http://www.w3.org/1999/xlink" x="0px" y="0px"
	 viewBox="0 0 300 82.8" style="enable-background:new 0 0 300 82.8;" xml:space="preserve">
<style type="text/css">
	.st0{fill:#00A3BA;}
	.st1{fill:#7EC7D8;}
	.st2{fill:#FFFFFF;}
</style>
<g>
	<path class="st0" d="M11.9,33.9C3.6,31-2.4,20,0.9,10.9C4.2,1.8,15.4-1.9,23.7,1c20.2,7.1,26.5,34.3,27.2,50.9
		C38.3,36.1,19.2,36.5,11.9,33.9"/>
	<path class="st1" d="M20.4,54.1c-2.3,2.7-7.3,3.3-10.3,0.8c-2.9-2.5-2.7-7.3-0.4-10c5.6-6.5,16.8-4.9,23.1-2.7
		C25.1,44.6,22.4,51.8,20.4,54.1"/>
	<g>
		<rect x="60.6" y="53.2" class="st0" width="238.7" height="3.4"/>
	</g>
	<g>
		<path class="st2" d="M60.7,65.5h12.7v3.3h-8.5v2.8h7.8v3.2h-7.8v3h8.7v3.6H60.7V65.5z"/>
		<path class="st2" d="M75.7,65.5h4.1v15.9h-4.1V65.5z"/>
		<path class="st2" d="M82,65.5h4.2l5.5,9.8h0v-9.8h3.9v15.9h-4.2L86,71.5h0v9.9H82V65.5z"/>
		<path class="st2" d="M105.5,65.5h4.2l5.5,9.8h0v-9.8h3.9v15.9H115l-5.5-9.9h0v9.9h-3.9V65.5z"/>
		<path class="st2" d="M126.4,65.5h4.2l5.9,15.9h-4.3l-1-2.8h-5.5l-1,2.8h-4.2L126.4,65.5z M126.6,75.5h3.6l-1.8-5.6h0L126.6,75.5z"
			/>
		<path class="st2" d="M137.6,65.5h6.1l2.7,10.6h0l2.7-10.6h6.1v15.9h-3.9V69.4h0l-3.3,12.1h-3.2l-3.3-12.1h0v12.1h-3.9V65.5z"/>
		<path class="st2" d="M157.5,65.5h12.7v3.3h-8.5v2.8h7.8v3.2h-7.8v3h8.7v3.6h-12.9V65.5z"/>
		<path class="st2" d="M172.7,77.3h4.1v4.1h-4.1V77.3z"/>
		<path class="st2" d="M184.3,65.5H197v3.3h-8.5v2.8h7.8v3.2h-7.8v3h8.7v3.6h-12.9V65.5z"/>
		<path class="st2" d="M199.3,65.5h4.1v15.9h-4.1V65.5z"/>
		<path class="st2" d="M205.7,65.5h4.2l5.5,9.8h0v-9.8h3.9v15.9h-4.2l-5.5-9.9h0v9.9h-3.9V65.5z"/>
		<path class="st2" d="M244.8,81.4h-4.1l-2.2-10.9h0l-2.2,10.9h-4.2l-4.3-15.9h4.1l2.2,11.6h0l2.3-11.6h3.9l2.3,11.6h0l2.2-11.6h4.1
			L244.8,81.4z"/>
		<path class="st2" d="M257.3,65.2c5,0,7.8,3.7,7.8,8.3s-2.8,8.3-7.8,8.3c-5,0-7.8-3.7-7.8-8.3S252.3,65.2,257.3,65.2z M257.3,78.2
			c2.7,0,3.7-2.4,3.7-4.7c0-2.4-1-4.7-3.7-4.7c-2.7,0-3.7,2.4-3.7,4.7C253.6,75.8,254.6,78.2,257.3,78.2z"/>
		<path class="st2" d="M267,65.5h8.1c2.8,0,5.6,1.3,5.6,4.5c0,1.7-0.8,3.3-2.5,4v0c1.7,0.4,2.2,2.3,2.3,3.8c0,0.7,0.1,3,0.7,3.6
			h-4.1c-0.4-0.5-0.4-2.1-0.5-2.5c-0.1-1.6-0.4-3.2-2.3-3.2h-3.1v5.8H267V65.5z M271.1,72.4h3.5c1.2,0,1.9-0.7,1.9-1.9
			c0-1.2-0.9-1.7-2.1-1.7h-3.3V72.4z"/>
		<path class="st2" d="M295.5,69.1h-4.7v12.3h-4.1V69.1h-4.7v-3.6h13.6V69.1z"/>
		<path class="st2" d="M294.9,77.3h4.1v4.1h-4.1V77.3z"/>
	</g>
	<path class="st2" d="M274.7,26c0.6-5.8,4.2-11.4,10.5-11.4c6.3,0,10,5.5,10.2,11.4H274.7z M299.4,29.3c0.3-9-3.8-18-14.1-18
		c-10.2,0-14.4,8.5-14.4,16.9c0,9.1,4.3,16.9,14.4,16.9c8.1,0,12.3-4.2,13.9-11.5h-3.9c-1.2,4.8-4.3,8.2-10,8.2
		c-7.5,0-10.5-6.9-10.5-12.6H299.4z M267.2,0h-3.9v18.3h-0.1c-1.7-4.6-6.3-7-11.1-7c-9.7,0-14.4,7.9-14.4,16.9
		c0,9,4.6,16.9,14.4,16.9c4.6,0,9.7-2.9,11.4-7h0.1v6.1h3.6V0z M241.6,28.3c0-6.6,3-13.6,10.5-13.6c8.3,0,11.2,7,11.2,13.6
		s-2.9,13.6-11.2,13.6C244.6,41.9,241.6,34.9,241.6,28.3 M226.6,44.3h6.9v-6.9h-6.9V44.3z M209.4,44.3h8.8V29.8
		c0-5.6,2.2-10.3,8.7-10.3c1.1,0,2.4,0.1,3.2,0.3v-8.2c-0.6-0.2-1.3-0.3-1.9-0.3c-4.3,0-8.6,2.8-10.2,6.8h-0.1v-6h-8.4V44.3z
		 M182,24.8c0.1-2.5,1.7-6.8,7.3-6.8c4.3,0,6.2,2.4,7,6.8H182z M205.1,30.4c0.6-9.9-4.6-19-15.6-19c-9.7,0-16.4,7.3-16.4,16.9
		c0,9.9,6.3,16.9,16.4,16.9c7.3,0,12.5-3.2,15-10.8h-7.7c-0.6,2-3.4,4.2-6.9,4.2c-4.9,0-7.6-2.5-7.9-8.1H205.1z M165.3,2.6h-8.8v9.6
		h-5.3v5.9h5.3V37c0,6.4,4.7,7.6,10.1,7.6c1.7,0,3.7-0.1,5.1-0.3v-6.9c-0.9,0.2-1.8,0.2-2.7,0.2c-3,0-3.7-0.7-3.7-3.7V18.1h6.4v-5.9
		h-6.4V2.6z M148.3,12.2h-8.8V29c0,6.5-2,9.2-6.8,9.2c-4.1,0-5.6-2.6-5.6-7.9V12.2h-8.8v19.7c0,7.9,2.4,13.2,11.7,13.2
		c3.7,0,7.6-1.7,9.8-5.3h0.2v4.5h8.4V12.2z M91,24.8c0.1-2.5,1.7-6.8,7.3-6.8c4.3,0,6.2,2.4,7,6.8H91z M114.1,30.4
		c0.6-9.9-4.6-19-15.6-19c-9.7,0-16.4,7.3-16.4,16.9c0,9.9,6.3,16.9,16.4,16.9c7.3,0,12.5-3.2,15-10.8h-7.7c-0.6,2-3.4,4.2-6.9,4.2
		c-4.9,0-7.6-2.5-7.9-8.1H114.1z M60.6,44.3h8.8V29.8c0-5.6,2.2-10.3,8.7-10.3c1.1,0,2.4,0.1,3.2,0.3v-8.2c-0.6-0.2-1.3-0.3-1.9-0.3
		c-4.3,0-8.6,2.8-10.2,6.8H69v-6h-8.4V44.3z"/>
</g>
</svg>
