<?xml version="1.0" encoding="utf-8"?>
<!-- Generator: Adobe Illustrator 19.2.1, SVG Export Plug-In . SVG Version: 6.00 Build 0)  -->
<svg version="1.1" id="Layer_1" xmlns="http://www.w3.org/2000/svg" xmlns:xlink="http://www.w3.org/1999/xlink" x="0px" y="0px"
	 viewBox="0 0 256 263" style="enable-background:new 0 0 256 263;" xml:space="preserve">
<g>
	<path d="M166.9,131.2L212.8,52l22.2,79.3l-22.2,79.3L166.9,131.2L166.9,131.2z M144.5,144.1l45.9,79.3l-80-20.5l-57.8-58.8H144.5
		L144.5,144.1z M190.4,39.1l-45.9,79.3H52.7l57.8-58.8L190.4,39.1L190.4,39.1z M255.9,104.3l-28-104.2L123.4,28l-15.5,27.2L76.5,55
		L0,131.2l76.5,76.3h0l31.4-0.2l15.5,27.2l104.5,27.9l28-104.2l-15.9-27L255.9,104.3L255.9,104.3z"/>
</g>
</svg>
