<?xml version="1.0" encoding="UTF-8" standalone="no"?>
<!-- Generator: Adobe Illustrator 19.2.1, SVG Export Plug-In . SVG Version: 6.00 Build 0)  -->

<svg
   version="1.1"
   id="Layer_1"
   x="0px"
   y="0px"
   viewBox="0 0 256 263"
   style="enable-background:new 0 0 256 263;"
   xml:space="preserve"
   sodipodi:docname="unityDesat.svg"
   inkscape:version="1.1.2 (b8e25be833, 2022-02-05)"
   xmlns:inkscape="http://www.inkscape.org/namespaces/inkscape"
   xmlns:sodipodi="http://sodipodi.sourceforge.net/DTD/sodipodi-0.dtd"
   xmlns="http://www.w3.org/2000/svg"
   xmlns:svg="http://www.w3.org/2000/svg"><defs
   id="defs9"><inkscape:perspective
     sodipodi:type="inkscape:persp3d"
     inkscape:vp_x="0 : 131.5 : 1"
     inkscape:vp_y="0 : 1000 : 0"
     inkscape:vp_z="256 : 131.5 : 1"
     inkscape:persp3d-origin="128 : 87.666667 : 1"
     id="perspective39" /></defs><sodipodi:namedview
   id="namedview7"
   pagecolor="#ffffff"
   bordercolor="#666666"
   borderopacity="1.0"
   inkscape:pageshadow="2"
   inkscape:pageopacity="0.0"
   inkscape:pagecheckerboard="0"
   showgrid="false"
   inkscape:zoom="3.1596958"
   inkscape:cx="128.01865"
   inkscape:cy="131.65824"
   inkscape:window-width="1920"
   inkscape:window-height="1017"
   inkscape:window-x="1912"
   inkscape:window-y="-8"
   inkscape:window-maximized="1"
   inkscape:current-layer="layer1" />
<g
   inkscape:groupmode="layer"
   id="layer2"
   inkscape:label="background" />
<g
   inkscape:groupmode="layer"
   id="layer1"
   inkscape:label="forground"><g
     id="g4"
     style="enable-background:new 0 0 256 263">
	<path
   d="M166.9,131.2L212.8,52l22.2,79.3l-22.2,79.3L166.9,131.2L166.9,131.2z M144.5,144.1l45.9,79.3l-80-20.5l-57.8-58.8H144.5   L144.5,144.1z M190.4,39.1l-45.9,79.3H52.7l57.8-58.8L190.4,39.1L190.4,39.1z M255.9,104.3l-28-104.2L123.4,28l-15.5,27.2L76.5,55   L0,131.2l76.5,76.3h0l31.4-0.2l15.5,27.2l104.5,27.9l28-104.2l-15.9-27L255.9,104.3L255.9,104.3z"
   id="path2" />
</g><path
     style="fill:#b3b3b3;stroke:#000000;stroke-width:1px;stroke-linecap:butt;stroke-linejoin:miter;stroke-opacity:1"
     d="m 110.5,59.6 79.9,-20.5 -45.9,79.3 H 52.7 Z"
     id="path953" /><path
     style="fill:#b3b3b3;stroke:#000000;stroke-width:1px;stroke-linecap:butt;stroke-linejoin:miter;stroke-opacity:1"
     d="m 144.5,144.1 45.9,79.3 -80,-20.5 -57.8,-58.8 z"
     id="path1233" /><path
     style="fill:#b3b3b3;stroke:#000000;stroke-width:1px;stroke-linecap:butt;stroke-linejoin:miter;stroke-opacity:1"
     d="M 166.9,131.2 212.8,52 235,131.3 212.8,210.6 Z"
     id="path1381" /></g></svg>
