<?xml version="1.0" standalone="no"?>
<!DOCTYPE svg PUBLIC "-//W3C//DTD SVG 20010904//EN"
 "http://www.w3.org/TR/2001/REC-SVG-20010904/DTD/svg10.dtd">
<svg version="1.0" xmlns="http://www.w3.org/2000/svg"
 width="500.000000pt" height="500.000000pt" viewBox="0 0 500.000000 500.000000"
 preserveAspectRatio="xMidYMid meet">
<metadata>
Created by potrace 1.11, written by Peter Selinger 2001-2013
</metadata>
<g transform="translate(0.000000,500.000000) scale(0.100000,-0.100000)"
fill="#000000" stroke="none">
<path d="M2360 4988 c-577 -39 -1061 -330 -1126 -676 -22 -119 -24 -121 -108
-119 -104 3 -150 -22 -219 -121 -105 -151 -157 -277 -178 -440 -24 -187 10
-410 86 -561 38 -76 59 -181 70 -351 8 -122 9 -133 24 -262 6 -53 18 -129 26
-169 9 -39 13 -79 10 -88 -6 -20 27 -76 54 -91 21 -11 21 -10 20 282 -1 166 3
332 10 383 37 297 63 408 121 530 80 165 213 280 367 316 44 10 400 13 493 4
84 -8 507 -5 625 5 72 6 198 22 280 36 116 19 191 25 330 26 175 1 182 0 245
-26 36 -15 98 -41 139 -57 111 -45 236 -116 270 -154 45 -52 101 -158 127
-243 13 -43 35 -145 49 -229 30 -184 45 -249 86 -378 25 -79 32 -119 33 -190
2 -138 -15 -477 -24 -495 -4 -8 -11 -42 -15 -75 -4 -33 -11 -65 -16 -70 -4 -6
-20 -55 -34 -110 -14 -54 -34 -117 -44 -139 -11 -23 -27 -66 -36 -96 -43 -146
-140 -312 -243 -416 -32 -33 -85 -93 -117 -134 -33 -41 -62 -77 -65 -80 -3 -3
-30 -34 -60 -70 -94 -112 -141 -158 -287 -283 -195 -168 -304 -247 -464 -335
-128 -70 -194 -87 -344 -87 -111 0 -140 3 -195 23 -79 28 -193 98 -276 169
-34 28 -65 49 -68 46 -3 -4 -6 -2 -6 4 0 6 -33 37 -72 69 -40 32 -75 61 -78
64 -3 4 -48 44 -100 90 -52 47 -97 88 -100 92 -3 4 -37 40 -76 80 -81 84 -184
205 -184 216 0 4 -34 46 -75 92 -41 47 -87 109 -101 137 -15 29 -28 53 -29 53
-7 0 26 -93 56 -162 107 -244 353 -522 640 -723 193 -136 256 -175 359 -222
l115 -53 202 0 203 0 102 34 c57 19 137 50 178 68 66 29 293 145 339 173 320
193 552 426 762 765 36 58 76 122 88 143 27 44 57 67 88 67 27 0 29 8 6 25
-16 12 -16 17 1 86 45 179 74 253 198 507 29 59 52 83 147 160 61 49 54 95
-10 68 -48 -21 -119 -98 -175 -191 -43 -72 -49 -77 -54 -55 -12 44 1 233 17
268 12 24 96 101 140 127 10 6 48 245 64 402 19 190 31 262 64 378 39 138 62
254 68 354 7 117 -30 374 -63 433 -16 29 -13 36 48 96 87 87 152 230 152 336
0 46 -10 45 -38 -4 -57 -101 -108 -130 -225 -130 -78 0 -105 14 -172 88 -196
218 -513 450 -855 624 -153 78 -339 137 -509 164 -105 16 -449 17 -661 2z"/>
<path d="M3065 3085 c-145 -32 -258 -82 -280 -125 -22 -42 -19 -66 13 -100 54
-60 177 -60 307 1 64 30 78 33 165 32 164 -2 347 -61 448 -146 24 -21 50 -37
58 -37 27 0 15 59 -22 115 -78 119 -225 224 -360 259 -75 19 -244 20 -329 1z"/>
<path d="M1465 3042 c-112 -42 -211 -135 -265 -246 -27 -59 -41 -136 -22 -136
4 0 29 23 55 50 90 93 213 143 352 144 68 0 92 -5 157 -32 109 -46 189 -43
237 9 27 30 27 77 -1 119 -19 28 -40 40 -123 69 -88 31 -114 35 -220 38 -99 3
-129 0 -170 -15z"/>
<path d="M3225 2414 c-107 -21 -137 -30 -180 -51 -156 -79 -251 -216 -243
-354 l3 -54 27 85 c47 147 114 230 232 286 189 89 395 62 528 -69 32 -32 62
-78 91 -137 23 -49 46 -89 51 -90 5 0 6 22 4 49 -6 57 -43 139 -88 193 -81 98
-292 168 -425 142z"/>
<path d="M1500 2371 c-126 -41 -201 -99 -249 -194 -34 -67 -48 -166 -25 -174
5 -2 23 29 38 69 49 126 109 193 224 246 51 24 68 27 167 27 102 0 115 -2 177
-32 94 -44 151 -101 199 -197 33 -66 40 -74 36 -45 -13 94 -105 212 -205 263
-112 57 -256 71 -362 37z"/>
<path d="M3238 2257 c-129 -37 -207 -138 -208 -273 0 -69 30 -141 80 -189 30
-29 34 -30 116 -27 100 4 118 9 161 50 38 35 87 57 109 48 13 -5 14 -9 4 -21
-7 -9 -10 -19 -6 -22 13 -14 41 14 69 68 24 46 28 63 25 119 -5 76 -25 124
-76 176 -66 68 -179 97 -274 71z m6 -119 c21 -30 20 -47 -6 -75 -26 -28 -61
-30 -88 -3 -25 25 -25 41 1 74 26 33 71 35 93 4z"/>
<path d="M1695 2235 c-27 -8 -53 -14 -56 -15 -3 0 -27 -19 -53 -41 -108 -95
-125 -231 -45 -352 47 -72 73 -81 181 -68 77 9 94 14 124 40 19 17 49 38 66
47 29 15 32 15 43 0 37 -50 85 26 85 134 0 108 -48 186 -142 232 -67 34 -138
41 -203 23z m5 -105 c39 -39 16 -100 -38 -100 -36 1 -62 22 -62 51 0 29 8 42
35 57 29 16 42 15 65 -8z"/>
<path d="M840 2041 c0 -21 9 -36 35 -55 60 -46 84 -78 113 -151 l27 -70 3 39
c2 27 -2 44 -16 60 -11 11 -32 45 -46 74 -27 53 -91 132 -107 132 -5 0 -9 -13
-9 -29z"/>
<path d="M2637 1343 c-53 -102 -206 -157 -364 -129 -89 15 -145 51 -169 109
-13 31 -18 37 -22 24 -17 -75 54 -161 162 -197 101 -33 218 -27 308 18 38 18
77 46 89 63 25 35 36 99 21 125 -9 16 -11 14 -25 -13z"/>
<path d="M1040 1286 c0 -8 4 -17 9 -20 5 -4 7 3 4 14 -6 23 -13 26 -13 6z"/>
<path d="M1743 994 c-21 -9 -16 -30 28 -121 76 -156 177 -262 314 -330 124
-62 154 -68 345 -68 l175 0 103 39 c57 22 132 57 165 79 165 106 343 366 271
394 -9 3 -80 -2 -158 -13 -121 -16 -198 -19 -546 -18 -316 1 -428 5 -510 18
-160 24 -174 26 -187 20z m734 -128 c182 -1 334 -4 338 -7 13 -14 -66 -38
-166 -49 -221 -26 -632 4 -646 47 -6 16 32 22 92 15 28 -3 199 -6 382 -6z
m-387 -122 c60 -12 139 -14 400 -10 192 2 349 9 383 16 33 6 61 9 63 7 8 -8
-87 -57 -151 -79 -219 -74 -548 -62 -731 27 -40 19 -75 42 -78 51 -5 13 -2 15
16 10 13 -4 57 -13 98 -22z"/>
</g>
</svg>
