<?xml version="1.0" standalone="no"?>
<!DOCTYPE svg PUBLIC "-//W3C//DTD SVG 20010904//EN"
 "http://www.w3.org/TR/2001/REC-SVG-20010904/DTD/svg10.dtd">
<svg version="1.0" xmlns="http://www.w3.org/2000/svg"
 width="500.000000pt" height="500.000000pt" viewBox="0 0 500.000000 500.000000"
 preserveAspectRatio="xMidYMid meet">

<g transform="translate(0.000000,500.000000) scale(0.100000,-0.100000)"
fill="#000000" stroke="none">
<path d="M3028 4948 c-8 -13 -20 -36 -28 -52 -20 -39 -34 -42 -48 -11 -6 14
-16 25 -22 25 -5 0 -61 -51 -123 -112 -80 -81 -135 -127 -194 -161 -46 -27
-87 -46 -91 -43 -5 3 -12 38 -16 78 -10 112 -37 239 -53 245 -7 3 -52 -32
-105 -83 -118 -111 -198 -163 -384 -248 -82 -38 -174 -82 -204 -99 -230 -128
-445 -337 -485 -471 -7 -22 -16 -41 -21 -43 -5 -2 -20 27 -33 64 -49 140 -63
150 -104 76 -41 -76 -174 -385 -195 -455 -60 -194 -55 -612 14 -1063 8 -55 24
-160 35 -234 21 -142 42 -238 63 -281 10 -20 10 -52 2 -152 -7 -70 -14 -130
-18 -133 -3 -3 -10 8 -16 24 -26 76 -113 164 -142 146 -20 -12 -9 -34 37 -75
26 -23 56 -54 65 -68 31 -46 56 -152 68 -277 10 -112 23 -215 36 -276 4 -22 0
-28 -25 -39 -17 -7 -38 -10 -46 -6 -9 3 -13 2 -10 -4 3 -6 27 -10 53 -10 l47
0 18 -61 c40 -138 141 -327 244 -461 113 -147 340 -361 498 -468 136 -92 278
-148 429 -169 99 -14 494 -14 572 0 219 39 381 133 622 363 242 231 379 434
458 679 28 84 29 87 59 87 22 0 40 9 61 32 l29 32 -33 -27 c-37 -30 -60 -34
-68 -13 -3 8 2 65 10 128 9 62 20 169 25 238 14 168 26 200 108 278 60 57 65
65 51 78 -12 12 -20 13 -34 6 -31 -17 -71 -64 -98 -116 l-26 -49 0 34 c-1 19
-5 79 -9 134 -8 90 -6 107 15 171 47 147 104 682 104 984 0 197 -53 356 -249
750 -127 254 -171 332 -186 334 -12 1 -22 -43 -24 -101 0 -23 -5 -44 -10 -48
-5 -3 -36 43 -67 102 -151 284 -282 493 -309 493 -8 0 -17 -16 -22 -41 -4 -22
-12 -41 -16 -42 -4 -1 -36 84 -71 188 -35 105 -69 202 -76 218 -16 33 -45 35
-62 5z m-783 -1429 c77 -7 334 -12 570 -13 l430 -1 90 -34 c135 -50 265 -115
311 -155 120 -103 191 -286 234 -601 30 -222 31 -236 13 -420 -15 -156 -15
-211 -6 -430 7 -153 8 -298 3 -374 -7 -110 -12 -130 -40 -186 -38 -75 -95
-133 -170 -172 -49 -25 -65 -28 -146 -28 l-92 0 -123 63 c-136 68 -209 88
-344 90 -44 1 -129 5 -188 8 l-108 7 38 17 c84 39 143 146 117 214 -10 26 -21
18 -28 -19 -20 -105 -177 -163 -324 -120 -65 20 -105 54 -127 107 -12 32 -19
39 -26 27 -36 -57 38 -183 125 -213 33 -11 10 -14 -191 -19 -265 -8 -295 -14
-455 -92 -65 -31 -132 -57 -158 -59 -61 -7 -161 10 -218 36 -61 29 -182 150
-211 211 -34 74 -71 226 -73 298 -2 96 -1 615 1 684 4 122 100 614 143 731 44
124 121 234 202 292 47 33 261 100 438 137 134 28 134 28 313 14z m264 -2399
c61 -19 67 -20 117 -5 117 34 146 35 325 15 95 -11 174 -22 176 -24 6 -5 -8
-9 -149 -45 -190 -48 -248 -54 -450 -48 -158 4 -200 9 -308 35 -189 46 -220
55 -220 62 0 13 272 39 360 35 49 -2 112 -13 149 -25z m-428 -84 c88 -41 205
-68 301 -69 47 -1 84 -5 81 -9 -12 -21 329 1 445 28 73 17 203 73 229 99 15
15 18 15 42 -9 24 -24 26 -33 26 -109 0 -101 -25 -158 -102 -234 -105 -103
-264 -125 -336 -45 -16 18 -32 19 -200 20 l-182 1 -45 -32 c-40 -28 -53 -32
-110 -32 -85 1 -159 36 -227 108 -97 102 -124 260 -56 333 l24 26 27 -25 c15
-14 52 -37 83 -51z"/>
<path d="M1745 2735 c-104 -22 -203 -75 -264 -141 -28 -31 -51 -62 -51 -70 0
-24 59 -16 115 16 114 65 251 74 440 29 139 -33 209 -21 234 40 19 44 -2 80
-64 111 -44 22 -63 24 -195 27 -97 1 -168 -2 -215 -12z"/>
<path d="M3033 2717 c-92 -26 -123 -100 -62 -151 25 -22 41 -26 89 -26 32 0
89 7 125 15 88 21 258 24 309 6 22 -8 65 -29 97 -47 57 -34 109 -44 109 -23 0
22 -42 79 -87 119 -99 87 -215 120 -413 119 -69 -1 -144 -6 -167 -12z"/>
<path d="M1785 2363 c-123 -15 -240 -82 -298 -169 -42 -65 -62 -126 -49 -151
7 -12 16 -2 42 51 42 85 127 166 207 197 81 31 215 31 296 0 110 -43 183 -118
233 -238 23 -57 24 -57 24 -22 1 123 -132 274 -274 313 -57 16 -136 24 -181
19z"/>
<path d="M3190 2332 c-83 -22 -144 -58 -202 -120 -55 -59 -85 -115 -94 -174
-6 -43 -5 -42 32 30 115 226 387 301 588 163 56 -39 101 -96 128 -163 28 -69
35 -77 43 -45 9 35 -20 118 -59 170 -47 63 -142 122 -225 141 -87 20 -128 19
-211 -2z"/>
<path d="M1806 2274 c-61 -19 -140 -95 -155 -150 -15 -55 -14 -135 4 -177 21
-50 71 -104 118 -129 44 -22 161 -28 193 -10 11 6 0 8 -35 4 -74 -7 -128 17
-173 76 -35 45 -58 105 -58 147 1 11 9 -5 20 -35 35 -102 128 -152 216 -115
75 31 114 87 114 165 0 51 -20 90 -62 125 -35 29 -22 25 25 -8 34 -23 87 -125
87 -167 0 -43 -25 -99 -63 -139 -32 -34 -32 -34 -3 -13 114 86 128 245 32 359
-56 66 -170 96 -260 67z m16 -91 c35 -32 14 -103 -31 -103 -10 0 -30 9 -44 20
-23 18 -25 24 -16 47 19 50 58 66 91 36z"/>
<path d="M3181 2256 c-126 -45 -197 -211 -142 -331 22 -50 83 -111 129 -130
38 -17 136 -19 167 -4 16 7 13 8 -11 4 -47 -9 -126 13 -157 43 -44 42 -76 104
-82 158 l-5 49 13 -47 c27 -94 78 -138 160 -138 155 0 230 183 119 289 l-37
35 33 -19 c61 -36 119 -150 106 -210 -3 -16 -17 -50 -30 -75 l-24 -45 30 32
c38 42 64 130 55 186 -16 96 -78 172 -162 203 -47 16 -117 16 -162 0z m23 -98
c30 -42 10 -90 -38 -90 -60 0 -80 55 -34 95 27 23 54 22 72 -5z"/>
<path d="M2777 821 c-70 -32 -130 -61 -134 -65 -22 -22 103 16 172 52 38 20
106 71 95 71 -3 1 -62 -26 -133 -58z"/>
<path d="M2270 840 c48 -38 191 -95 204 -82 5 4 -210 102 -223 102 -4 0 5 -9
19 -20z"/>
<path d="M940 1261 c5 -11 15 -23 21 -27 6 -3 3 5 -6 20 -20 30 -30 35 -15 7z"/>
</g>
</svg>
